<svg width="182" height="138" viewBox="0 0 182 138" fill="none" xmlns="http://www.w3.org/2000/svg">
<path d="M179.995 93.1994L175.154 93.6447C173.943 83.2986 167.677 75.4134 160.126 75.4134H155.133V75.4299C147.031 75.7749 140.52 85.1893 140.356 96.8457L135.828 97.2621C135.364 95.8648 134.796 94.5042 134.129 93.1919L133.166 85.3195C133.166 85.3195 134.306 77.4034 133.867 74.0796C133.429 70.7559 133.341 63.8889 132.947 61.9208C132.553 59.9527 132.027 52.6052 131.414 50.5057C130.801 48.4063 129.925 44.8204 129.925 44.8204C129.925 44.8204 131.636 39.3096 128.786 35.3296C125.936 31.3496 123.749 31.1745 123.749 31.1745C122.78 30.3836 121.614 29.8697 120.375 29.6875C120.375 29.6875 118.996 27.5886 117.714 26.998C117.714 26.998 119.499 26.0578 119.784 22.6683C119.998 20.138 120.179 17.9772 119.949 16.3679C119.719 14.7586 119.423 12.4648 119.423 12.4648C119.423 12.4648 120.54 7.87291 118.306 5.05159C118.306 5.05159 116.63 0 109.536 0C102.441 0 99.3509 4.98591 99.0878 8.52859C98.9259 10.6169 98.9811 12.7163 99.2525 14.7933C99.4609 16.2262 99.9402 17.6066 100.665 18.8608C100.665 18.8608 101.125 22.5674 100.697 23.1905C100.27 23.8136 90.4475 26.7337 86.9982 30.3085C86.9982 30.3085 81.7414 32.441 81.1157 34.4732C80.49 36.5053 79.0788 38.6064 77.8959 39.4922C76.7129 40.378 71.4898 46.3479 70.4385 49.6279C69.3871 52.9079 65.4009 60.737 65.4009 60.737C65.4009 60.737 61.2832 63.2738 60.5383 66.51C59.7933 69.7462 59.9693 75.7818 59.9693 75.7818C59.9693 75.7818 60.0131 85.4461 60.188 88.159C60.3629 90.872 60.8896 95.0698 60.5383 96.1633C60.1869 97.2568 60.188 99.8806 60.188 99.8806C60.188 99.8806 58.8308 102.597 58.7655 104.346L39.9795 106.077C38.0934 92.367 32.2575 82.0972 26.352 82.6322L20.6979 82.8592V82.8805C20.5373 82.877 20.3766 82.8818 20.2166 82.8949C14.2635 83.4342 10.3602 94.759 11.0559 108.738L1.66857 109.601C1.19787 109.645 0.762198 109.868 0.451887 110.224C0.141575 110.58 -0.0195596 111.042 0.00189806 111.514C0.0233557 111.985 0.225762 112.43 0.567138 112.757C0.908514 113.083 1.36266 113.266 1.83542 113.267C1.89211 113.267 1.94933 113.265 2.00655 113.259L11.342 112.401C12.8394 126.69 18.6358 137.804 24.6365 137.981V138L31.3564 137.701C37.6089 137.134 41.5978 124.67 40.3742 109.731L57.6548 108.141C57.5317 108.403 57.4821 108.694 57.5115 108.982C57.6869 110.118 57.2051 111.562 58.6505 111.431C58.9155 111.71 59.2672 111.893 59.6487 111.948C60.0302 112.004 60.4194 111.929 60.7533 111.737C60.7533 111.737 61.6292 112.48 62.2864 112.349C62.9801 112.11 63.6419 111.787 64.2571 111.388C64.7428 111.602 65.2931 111.618 65.7903 111.432C66.4036 111.082 67.6743 110.426 67.6743 110.426C67.6743 110.426 67.455 113.576 67.6304 113.969C67.8058 114.361 65.9662 116.855 65.7464 118.386C65.5266 119.917 65.1336 122.103 65.0897 122.759C65.0459 123.415 64.1694 124.859 64.3448 125.69C64.5202 126.52 66.2726 126.827 66.2726 126.827C66.2726 126.827 66.5785 130.238 68.3748 130.632C70.1711 131.026 79.2841 131.156 80.158 131.025C81.0318 130.894 81.6912 129.058 80.3778 128.401C80.5649 127.08 80.5499 125.738 80.3334 124.421C79.9831 122.059 78.2306 119.61 77.5734 118.517C76.9162 117.424 76.4787 114.712 76.0846 113.881C75.829 113.343 76.3632 109.654 77.1761 106.347L106.219 103.677C105.56 105.119 104.857 106.49 104.513 107.103C103.9 108.197 103.374 110.952 103.374 110.952C103.374 110.952 101.271 110.296 100.701 112.22C100.13 114.145 100.043 117.993 100.043 117.993C100.043 117.993 98.7428 121.144 99.6493 121.711C101.401 122.805 110.731 123.373 110.731 123.373C110.731 123.373 112.175 125.295 115.945 125.604C119.714 125.912 126.019 124.728 125.801 123.329C125.79 122.973 125.643 122.634 125.391 122.382C125.139 122.13 124.799 121.984 124.442 121.973C124.189 121.347 123.809 120.779 123.327 120.305C122.845 119.832 122.27 119.461 121.639 119.218C119.361 118.212 117.215 116.288 116.077 115.632C114.94 114.976 112.573 112.789 112.617 112.657C112.661 112.526 117.697 112.57 116.91 110.735C116.122 108.9 114.194 110.954 114.194 110.954L115.858 108.418L115.639 108.111L112.354 111.085C112.354 111.085 115.16 106.463 117.62 102.631L125.284 101.926C126.052 103.445 127.022 105.006 127.335 105.006C127.895 104.922 128.441 104.761 128.956 104.526C128.956 104.526 129.307 105.576 129.7 105.401C130.094 105.226 132.81 104.351 132.986 103.783C133.161 103.214 133.994 104.045 134.606 103.783C134.954 103.634 135.527 102.388 135.854 100.953L140.511 100.526C141.598 111.078 147.934 119.177 155.588 119.177H160.122C168.536 119.177 175.357 109.393 175.363 97.3203L180.329 96.8638C180.815 96.819 181.263 96.5833 181.575 96.2085C181.887 95.8337 182.037 95.3505 181.992 94.8653C181.947 94.3801 181.711 93.9325 181.336 93.6211C180.96 93.3097 180.477 93.1599 179.991 93.2047L179.995 93.1994ZM114.941 57.9867C117.744 55.9749 120.898 50.3765 120.898 50.3765C120.679 51.383 120.591 57.4181 121.249 59.1678C121.906 60.9175 122.957 65.8591 122.957 65.8591C116.433 61.7478 108.589 62.5353 108.589 62.5353C109.465 60.9154 112.138 59.997 114.941 57.9867ZM78.6713 101.854C80.1601 99.0113 83.9275 95.2497 84.1024 93.3254C84.2773 91.4011 84.234 86.4152 84.5409 85.4968C84.8461 84.7999 85.2936 84.1743 85.8549 83.6601C85.8549 83.6601 94.3091 86.0628 101.23 85.0157L111.391 86.1963C111.391 86.1963 108.981 91.0076 109.025 93.2811C109.064 95.3245 108.292 97.8911 107.688 99.8517L78.3462 102.55C78.4569 102.292 78.5638 102.056 78.6713 101.852V101.854ZM120.635 98.18C122.65 95.5994 127.249 89.2579 127.249 89.2579L126.768 94.2C125.893 95.4997 125.133 96.8737 124.498 98.306L120.25 98.6968C120.39 98.5003 120.52 98.3252 120.635 98.1778V98.18Z" fill="white"/>
</svg>
